<svg width="335" height="291" viewBox="0 0 335 291" fill="none" xmlns="http://www.w3.org/2000/svg">
<g clip-path="url(#clip0_16_33)">
<path d="M268.033 241.542C268.033 241.542 293.615 234.879 313.648 201.563C336.093 164.224 326.464 99.0489 296.56 67.3903C268.834 37.9887 207.433 32.8247 171.797 47.159C138.138 60.702 112.281 93.2436 91.6974 97.6913C71.1134 102.139 45.5316 94.951 17.722 125.452C-10.0876 155.953 -3.97161 224.842 27.7345 247.614C59.4406 270.386 106.165 243.724 146.766 225.4C187.366 207.077 194.05 247.056 268.033 241.542Z" fill="#EFFF00"/>
<g opacity="0.7">
<path d="M268.033 241.542C268.033 241.542 293.615 234.879 313.648 201.563C336.093 164.224 326.464 99.0489 296.56 67.3903C268.834 37.9887 207.433 32.8247 171.797 47.159C138.138 60.702 112.281 93.2436 91.6974 97.6913C71.1134 102.139 45.5316 94.951 17.722 125.452C-10.0876 155.953 -3.97161 224.842 27.7345 247.614C59.4406 270.386 106.165 243.724 146.766 225.4C187.366 207.077 194.05 247.056 268.033 241.542Z" fill="white"/>
</g>
<path d="M259.556 174.227V174.169C252.739 171.92 242.293 172.678 240.741 173.602C239.094 174.709 237.678 176.123 236.569 177.767C232.902 182.963 230.273 188.817 228.826 195.008L154.768 201.871C152.047 195.991 147.934 190.718 143.804 187.545C142.625 186.557 141.265 185.808 139.799 185.338C139.155 185.252 138.501 185.272 137.863 185.396C135.168 177.633 131.372 170.137 126.616 169.663C116.603 168.663 99.1316 172.003 94.3674 181.706C89.6031 191.41 88.1096 215.597 88.1096 215.597L84.7721 218.929C82.3307 214.2 78.9461 210.019 74.8264 206.643C73.6451 205.659 72.2855 204.91 70.8214 204.436C69.9871 204.211 66.6496 204.719 63.1452 205.861L62.728 205.477C59.3905 202.679 52.5487 201.155 48.7273 208.268C44.9059 215.381 49.4866 228.849 51.7811 231.897C52.8893 233.453 54.2787 234.789 55.8778 235.837C58.5812 242.5 63.3872 250.996 70.8047 251.387C73.3418 251.528 75.8793 251.12 78.2439 250.191C80.6084 249.263 82.7442 247.835 84.5051 246.007C89.3194 241.009 89.8367 233.988 88.0262 227.125L88.7938 225.992C88.7938 225.992 90.5293 228.449 97.1375 227.449C99.0546 227.258 100.872 226.505 102.361 225.284C105.473 233.196 110.487 241.109 118.456 242.292C121.874 242.816 125.366 242.597 128.692 241.651C132.018 240.706 135.101 239.055 137.73 236.811C139.264 235.498 140.601 233.972 141.701 232.28C146.161 232.036 150.362 230.113 153.458 226.9C156.236 223.947 157.823 220.072 157.913 216.022L167.767 214.889C173.956 217.643 180.707 218.904 187.475 218.571C193.95 218.155 200.08 215.505 204.813 211.075L227.266 209.167C227.65 217.854 230.779 225.825 238.113 230.215C240.925 231.888 244.066 232.934 247.321 233.28C250.576 233.627 253.868 233.266 256.97 232.222C267.324 228.749 269.777 213.398 270.436 204.061C271.496 189.069 266.715 176.376 259.556 174.227Z" fill="#0A2B14" stroke="#0A2B14" stroke-width="0.75" stroke-linecap="round" stroke-linejoin="round"/>
<path d="M122.469 237.511C121.603 238.605 120.506 239.495 119.257 240.118" stroke="white" stroke-width="0.5" stroke-linecap="round" stroke-linejoin="round"/>
<path d="M126.516 217.771C126.516 217.771 127.509 228.599 123.812 235.462" stroke="white" stroke-width="0.5" stroke-linecap="round" stroke-linejoin="round"/>
<path d="M129.444 229.732C128.493 233.896 126.624 237.936 122.986 239.726" stroke="white" stroke-width="0.5" stroke-linecap="round" stroke-linejoin="round"/>
<path d="M133.975 216.938C133.975 216.938 135.644 234.946 126.716 239.293" stroke="white" stroke-width="0.5" stroke-linecap="round" stroke-linejoin="round"/>
<path d="M137.671 216.555C137.671 216.555 139.34 234.562 130.421 238.91" stroke="white" stroke-width="0.5" stroke-linecap="round" stroke-linejoin="round"/>
<path d="M250.311 229.14C249.355 230.351 248.163 231.357 246.807 232.097" stroke="white" stroke-width="0.5" stroke-linecap="round" stroke-linejoin="round"/>
<path d="M256.986 206.668C256.986 206.668 256.452 218.987 251.88 226.816" stroke="white" stroke-width="0.5" stroke-linecap="round" stroke-linejoin="round"/>
<path d="M258.179 220.303C256.669 225.051 254.275 229.64 250.478 231.647" stroke="white" stroke-width="0.5" stroke-linecap="round" stroke-linejoin="round"/>
<path d="M264.396 205.727C264.396 205.727 263.503 226.25 254.183 231.164" stroke="white" stroke-width="0.5" stroke-linecap="round" stroke-linejoin="round"/>
<path d="M268.1 205.294C268.1 205.294 267.207 225.817 257.887 230.731" stroke="white" stroke-width="0.5" stroke-linecap="round" stroke-linejoin="round"/>
<path d="M73.1577 248.638C72.4487 249.725 71.5157 250.648 70.4209 251.345" stroke="white" stroke-width="0.5" stroke-linecap="round" stroke-linejoin="round"/>
<path d="M74.476 231.131C74.476 231.131 76.8372 240.251 74.1839 246.698" stroke="white" stroke-width="0.5" stroke-linecap="round" stroke-linejoin="round"/>
<path d="M78.8397 240.959C78.4726 244.674 77.171 248.405 73.942 250.446" stroke="white" stroke-width="0.5" stroke-linecap="round" stroke-linejoin="round"/>
<path d="M81.5264 229.34C81.5264 229.34 85.4479 244.541 77.4714 249.555" stroke="white" stroke-width="0.5" stroke-linecap="round" stroke-linejoin="round"/>
<path d="M85.0475 228.449C85.0475 228.449 88.969 243.649 80.9924 248.663" stroke="white" stroke-width="0.5" stroke-linecap="round" stroke-linejoin="round"/>
<path d="M113.808 211.558C115.786 222.902 114.551 232.588 111.038 233.213C107.525 233.838 103.078 225.126 101.092 213.781C99.1066 202.437 100.35 192.751 103.854 192.126C107.359 191.501 111.806 200.255 113.808 211.558Z" fill="#EFFF00" stroke="#0A2B14" stroke-linecap="round" stroke-linejoin="round"/>
<path d="M112.039 211.832C112.59 216.18 112.081 219.828 110.888 219.978C109.695 220.128 108.293 216.73 107.734 212.382C107.175 208.034 107.734 204.386 108.885 204.236C110.037 204.086 111.489 207.485 112.039 211.832Z" fill="#EFFF00" stroke="#0A2B14" stroke-linecap="round" stroke-linejoin="round"/>
<path d="M103.671 201.446C103.786 199.984 104.017 198.533 104.363 197.107" stroke="#0A2B14" stroke-width="0.75" stroke-linecap="round" stroke-linejoin="round"/>
<path d="M109.202 229.157C106.89 224.546 105.238 219.634 104.296 214.564C103.67 210.974 103.413 207.329 103.529 203.687" stroke="#0A2B14" stroke-width="0.75" stroke-linecap="round" stroke-linejoin="round"/>
<path d="M64.6999 245.285C67.2223 244.587 67.4323 237.413 65.1691 229.261C62.9058 221.109 59.0264 215.066 56.504 215.764C53.9817 216.461 53.7717 223.636 56.0349 231.788C58.2981 239.94 62.1776 245.983 64.6999 245.285Z" fill="#EFFF00" stroke="#0A2B14" stroke-linecap="round" stroke-linejoin="round"/>
<path d="M64.3467 229.582C65.1394 232.68 65.0893 235.37 64.2466 235.579C63.4039 235.787 62.0772 233.463 61.2846 230.365C60.4919 227.266 60.5336 224.584 61.3763 224.368C62.2191 224.151 63.5541 226.492 64.3467 229.582Z" stroke="#0A2B14" stroke-width="0.75" stroke-linecap="round" stroke-linejoin="round"/>
<path d="M57.3547 222.818C57.3037 221.751 57.34 220.682 57.4631 219.62" stroke="#0A2B14" stroke-width="0.75" stroke-linecap="round" stroke-linejoin="round"/>
<path d="M63.8544 242.375C61.7664 239.243 60.129 235.833 58.99 232.247C58.2095 229.705 57.695 227.09 57.4548 224.443" stroke="#0A2B14" stroke-width="0.75" stroke-linecap="round" stroke-linejoin="round"/>
<path d="M243.561 90.0952C234.767 71.9879 230.971 70.4137 225.122 70.1055C219.273 69.7973 205.456 68.0899 190.078 70.5553C190.078 70.5553 147.158 69.8057 113.95 89.8787C79.2653 110.876 62.411 129.292 60.0747 138.845C57.7385 148.398 49.6284 173.244 45.807 187.512C41.9856 201.779 39.374 214.331 44.255 225.875C47.2004 232.863 50.3376 234.954 54.3676 234.929C53.7543 233.837 53.2108 232.708 52.7406 231.547C48.7356 221.644 49.2196 207.468 53.7919 206.56C58.3643 205.652 61.0927 215.131 63.8544 225.475C64.4011 227.756 65.1437 229.985 66.0739 232.139C72.899 229.565 83.8543 223.81 98.3974 217.838C97.0245 208.749 96.9936 199.508 98.3056 190.41C100.458 176.192 109.561 173.052 113.533 181.706C116.804 188.844 118.03 204.794 118.356 210.175C124.196 208.168 129.086 206.843 132.098 206.66C132.098 206.66 181.893 195.441 218.597 194.533C255.301 193.625 273.665 192.759 273.665 192.759C273.665 192.759 252.356 108.211 243.561 90.0952Z" fill="white"/>
<path d="M126.207 177.533C126.207 177.533 121.201 184.43 115.026 185.912C117.196 193.858 118.08 205.619 118.364 210.067C123.579 208.284 128.009 207.027 131.046 206.652C131.489 204.053 131.756 202.404 131.756 202.404L126.207 177.533Z" fill="#EFFF00"/>
<path opacity="0.2" d="M64.0714 226.183C66.3826 226.417 67.9345 227.408 72.6487 226.233C80.9924 224.159 74.9933 208.093 88.8355 201.529C91.5225 200.175 94.4464 199.352 97.4462 199.106C97.575 196.164 97.8535 193.232 98.2806 190.319C98.6569 187.457 99.5174 184.68 100.825 182.106C97.0457 180.94 96.3615 179.841 89.9202 182.939C76.0696 189.502 78.1472 206.435 69.8369 208.509C63.2203 210.175 62.8532 207.51 57.8136 208.751C60.1748 212.082 61.9854 218.562 63.8294 225.409C63.9295 225.717 63.9963 225.925 64.0714 226.183Z" fill="#EFFF00"/>
<g style="mix-blend-mode:multiply">
<g style="mix-blend-mode:multiply" opacity="0.2">
<path d="M50.4461 211.941C46.5579 214.614 44.255 218.604 42.9367 221.936C43.2799 223.275 43.7091 224.591 44.2217 225.875C47.167 232.863 50.3042 234.954 54.3342 234.929C53.7323 233.836 53.2 232.707 52.7406 231.547C50.1958 225.209 49.4699 217.196 50.4461 211.941Z" fill="#EFFF00"/>
</g>
</g>
<g style="mix-blend-mode:multiply" opacity="0.2">
<path d="M225.122 70.1388L223.611 70.0556C162.761 85.5975 138.005 158.81 129.486 194.067C129.945 197.573 130.437 201.021 130.98 204.37C132.023 204.17 131.297 206.593 132.098 206.552C132.098 206.552 181.893 195.333 218.597 194.425C255.301 193.517 273.665 192.651 273.665 192.651C273.665 192.651 252.381 108.194 243.628 90.0786C234.875 71.9629 230.971 70.4137 225.122 70.1388Z" fill="#EFFF00"/>
</g>
<path d="M243.561 90.0952C234.767 71.9879 230.971 70.4137 225.122 70.1055C219.273 69.7973 205.456 68.0899 190.078 70.5553C190.078 70.5553 147.158 69.8057 113.95 89.8787C79.2653 110.876 62.411 129.292 60.0747 138.845C57.7385 148.398 49.6284 173.244 45.807 187.512C41.9856 201.779 39.374 214.331 44.255 225.875C47.2004 232.863 50.3376 234.954 54.3676 234.929C53.7543 233.837 53.2108 232.708 52.7406 231.547C48.7356 221.644 49.2196 207.468 53.7919 206.56C58.3643 205.652 61.0927 215.131 63.8544 225.475C64.4011 227.756 65.1437 229.985 66.0739 232.139C72.899 229.565 83.8543 223.81 98.3974 217.838C97.0245 208.749 96.9936 199.508 98.3056 190.41C100.458 176.192 109.561 173.052 113.533 181.706C116.804 188.844 118.03 204.794 118.356 210.175C124.196 208.168 129.086 206.843 132.098 206.66C132.098 206.66 181.893 195.441 218.597 194.533C255.301 193.625 273.665 192.759 273.665 192.759C273.665 192.759 252.356 108.211 243.561 90.0952Z" stroke="#0A2B14" stroke-linecap="round" stroke-linejoin="round"/>
<path opacity="0.2" d="M61.4181 181.573C61.9908 182.049 62.688 182.351 63.4272 182.444C64.1664 182.537 64.9168 182.417 65.5899 182.098C68.2182 181.048 68.4852 177.1 68.4852 177.1L72.4234 176.834L73.2578 164.499L64.5803 167.913C64.5803 167.913 62.2107 179.974 61.4181 181.573Z" fill="#EFFF00"/>
<path d="M50.0623 217.621C47.5767 218.952 45.2243 220.516 43.0369 222.294C43.3828 223.511 43.8008 224.707 44.2884 225.875C47.2338 232.863 50.371 234.954 54.401 234.929C53.7762 233.838 53.2217 232.708 52.7406 231.547C51.0341 227.099 50.1274 222.384 50.0623 217.621V217.621Z" fill="#0A2B14" stroke="#0A2B14" stroke-width="0.75" stroke-linecap="round" stroke-linejoin="round"/>
<path d="M63.3288 210.725C63.0496 210.726 62.7781 210.634 62.5572 210.464C62.3363 210.294 62.1788 210.054 62.1098 209.784C62.0407 209.514 62.0641 209.229 62.1761 208.974C62.2881 208.719 62.4824 208.508 62.728 208.376C62.9283 208.268 79.1651 198.223 92.6152 191.093C92.7604 191.016 92.9194 190.968 93.083 190.952C93.2467 190.937 93.4119 190.953 93.5692 191.001C93.7265 191.049 93.8728 191.128 93.9997 191.232C94.1266 191.336 94.2317 191.465 94.309 191.61C94.3862 191.754 94.4341 191.913 94.4499 192.077C94.4657 192.24 94.4491 192.405 94.4011 192.562C94.3531 192.719 94.2745 192.865 94.17 192.992C94.0654 193.118 93.9368 193.223 93.7917 193.3C80.3499 200.422 64.1214 210.467 63.9212 210.575C63.7388 210.672 63.5355 210.723 63.3288 210.725V210.725Z" fill="#0A2B14" stroke="#0A2B14" stroke-miterlimit="10"/>
<path d="M84.5468 127.251L83.9795 141.594C83.8543 143.551 84.989 144.484 86.4826 143.651L109.545 128.659C110.393 128.07 111.078 127.276 111.535 126.351C111.991 125.426 112.205 124.4 112.156 123.37L112.006 107.411C111.847 105.962 110.863 105.379 109.645 106.004C105.314 108.244 96.9372 115.824 86.9164 122.878C86.2459 123.409 85.6902 124.071 85.283 124.822C84.8757 125.574 84.6253 126.4 84.5468 127.251V127.251Z" fill="#EFFF00" stroke="#0A2B14" stroke-linecap="round" stroke-linejoin="round"/>
<path d="M141.843 100.69L144.213 136.455C144.273 137.488 144.544 138.498 145.009 139.424C145.473 140.349 146.122 141.17 146.916 141.837C147.709 142.504 148.63 143.002 149.623 143.301C150.616 143.6 151.66 143.693 152.69 143.576L232.356 133.265C233.454 133.139 234.511 132.776 235.455 132.201C236.398 131.627 237.205 130.855 237.82 129.938C238.435 129.022 238.844 127.983 239.016 126.893C239.189 125.804 239.123 124.689 238.822 123.628L228.768 88.1129C228.292 86.4252 227.246 84.9536 225.807 83.9472C224.369 82.9409 222.626 82.4617 220.875 82.5907C207.95 83.5319 176.978 86.3055 147.734 92.8188C145.977 93.2218 144.421 94.2342 143.342 95.6756C142.263 97.117 141.732 98.8939 141.843 100.69V100.69Z" fill="#EFFF00" stroke="#0A2B14" stroke-linecap="round" stroke-linejoin="round"/>
<path d="M230.14 138.364C237.63 138.18 243.555 132.073 243.374 124.725C243.193 117.376 236.974 111.568 229.483 111.752C221.993 111.936 216.068 118.043 216.249 125.391C216.43 132.74 222.649 138.548 230.14 138.364Z" fill="#00551A"/>
<path d="M228.342 131.416H228.301C228.04 131.42 227.782 131.364 227.547 131.251C227.313 131.138 227.108 130.972 226.949 130.766L221.617 123.428C221.489 123.251 221.396 123.05 221.345 122.837C221.294 122.624 221.285 122.403 221.32 122.187C221.354 121.971 221.431 121.764 221.546 121.577C221.661 121.391 221.811 121.229 221.989 121.1C222.166 120.972 222.367 120.879 222.58 120.828C222.794 120.777 223.015 120.769 223.232 120.803C223.448 120.838 223.656 120.914 223.843 121.029C224.029 121.143 224.192 121.294 224.321 121.471L228.301 126.951L237.796 113.791C238.055 113.434 238.446 113.193 238.882 113.123C239.318 113.053 239.765 113.158 240.124 113.417C240.482 113.675 240.723 114.065 240.793 114.501C240.863 114.937 240.758 115.382 240.499 115.74L229.652 130.733C229.501 130.939 229.304 131.108 229.077 131.227C228.85 131.345 228.599 131.41 228.342 131.416V131.416Z" fill="white" stroke="#0A2B14" stroke-linecap="round" stroke-linejoin="round"/>
<path d="M177.938 167.314C177.938 167.314 206.307 161.875 225.756 162.266L226.924 166.922C226.924 166.922 186.106 168.863 178.33 172.753L177.938 167.314Z" fill="#0A2B14" stroke="#0A2B14" stroke-width="0.75" stroke-linecap="round" stroke-linejoin="round"/>
<path d="M178.33 172.744L179.165 177.409C179.251 177.928 179.537 178.394 179.963 178.705C180.389 179.016 180.92 179.149 181.442 179.074C188.56 178.05 213.541 174.635 226.498 174.91C226.817 174.919 227.133 174.854 227.421 174.718C227.709 174.583 227.961 174.382 228.157 174.132C228.353 173.881 228.487 173.588 228.548 173.276C228.609 172.964 228.596 172.642 228.509 172.336L226.949 166.922" stroke="#0A2B14" stroke-linecap="round" stroke-linejoin="round"/>
<path d="M74.8097 164.507L74.6512 145.267L75.6024 125.485C75.6113 125.295 75.5625 125.107 75.4622 124.946C75.3619 124.784 75.2149 124.656 75.0406 124.58C74.8663 124.503 74.6728 124.481 74.4856 124.516C74.2984 124.551 74.1263 124.643 73.992 124.777C70.4126 128.442 64.2716 133.989 62.4443 138.537C60.0914 144.426 57.2963 173.419 57.2963 173.419L74.8097 164.507Z" fill="#0A2B14" stroke="#0A2B14" stroke-width="0.75" stroke-linecap="round" stroke-linejoin="round"/>
<path d="M52.5904 160.642H49.7953C48.3714 160.642 47.2171 161.794 47.2171 163.216V177.592C47.2171 179.013 48.3714 180.165 49.7953 180.165H52.5904C54.0143 180.165 55.1686 179.013 55.1686 177.592V163.216C55.1686 161.794 54.0143 160.642 52.5904 160.642Z" fill="#0A2B14" stroke="#0A2B14" stroke-width="0.75" stroke-linecap="round" stroke-linejoin="round"/>
<path d="M54.3509 147.207C55.6739 147.465 56.966 147.862 58.2057 148.39C59.2336 148.891 60.1655 149.567 60.9592 150.389L65.131 144.875C65.131 144.875 59.0067 142.327 57.8553 140.761L56.7372 139.195L54.3509 147.207Z" fill="white"/>
<g style="mix-blend-mode:multiply" opacity="0.5">
<path d="M57.8553 140.761L56.779 139.295L56.6455 139.378L54.3509 147.207C54.3509 147.207 54.7932 147.291 55.4189 147.449L61.3847 143.126C60.0773 142.552 58.8823 141.751 57.8553 140.761V140.761Z" fill="#EFFF00"/>
</g>
<path d="M54.3509 147.207C55.6739 147.465 56.966 147.862 58.2057 148.39C59.2336 148.891 60.1655 149.567 60.9592 150.389L65.131 144.875C65.131 144.875 59.0067 142.327 57.8553 140.761L56.7372 139.195L54.3509 147.207Z" stroke="#0A2B14" stroke-width="0.75" stroke-linecap="round" stroke-linejoin="round"/>
<path d="M63.1536 142.535L58.0639 149.023L58.7564 151.239L66.5244 143.184L63.1536 142.535Z" fill="#EFFF00" stroke="#0A2B14" stroke-linecap="round" stroke-linejoin="round"/>
<path d="M54.9934 124.211C51.5558 121.537 42.5696 123.245 40.8091 129.558C39.7328 133.406 40.3335 139.278 40.3335 139.278L50.5629 137.113C50.8049 137.496 51.0719 137.896 51.3973 138.362C53.066 140.861 56.6788 139.195 57.6133 138.362C58.1223 137.912 58.0889 136.621 57.9554 135.538L58.3559 135.455C58.3559 135.455 58.406 126.885 54.9934 124.211Z" fill="#00551A"/>
<path d="M51.1386 136.346C46.6477 135.846 42.1016 136.283 37.7887 137.629C31.1554 139.861 30.0874 141.794 34.86 141.677C39.6326 141.56 51.1386 136.346 51.1386 136.346Z" fill="#0A2B14" stroke="#0A2B14" stroke-width="0.75" stroke-linecap="round" stroke-linejoin="round"/>
<path d="M42.9367 133.923C43.7155 133.923 44.3468 133.061 44.3468 131.999C44.3468 130.936 43.7155 130.075 42.9367 130.075C42.158 130.075 41.5266 130.936 41.5266 131.999C41.5266 133.061 42.158 133.923 42.9367 133.923Z" fill="#EFFF00"/>
<path d="M74.6512 145.267C74.6512 145.267 65.4731 142.943 62.703 145.084C59.9329 147.224 59.1736 150.756 60.0747 155.012C60.9758 159.268 63.1702 170.52 63.1702 170.52L74.8514 164.507L74.6512 145.267Z" fill="#0A2B14" stroke="#0A2B14" stroke-width="0.75" stroke-linecap="round" stroke-linejoin="round"/>
<path d="M60.1415 168.73C60.1415 168.73 59.6575 173.044 59.0818 173.652C58.5061 174.26 43.3205 161.517 42.3944 160.326C41.4682 159.135 42.1107 154.845 42.3944 153.504C42.6781 152.163 42.1941 151.43 40.7256 152.363C39.2572 153.296 39.6493 157.136 39.6493 157.136C39.6493 157.136 35.1687 156.053 34.276 155.928C33.3832 155.803 32.6072 156.919 32.7407 157.802C32.8742 158.685 34.0423 158.752 34.0423 158.752C33.7471 160.033 33.8311 161.373 34.2843 162.608C35.0686 164.215 35.953 165.231 37.6218 165.64C39.3468 165.903 41.0923 166.009 42.8366 165.956C42.8366 165.956 50.5963 173.327 52.8491 176.093C55.1019 178.858 59.8411 182.589 62.2024 181.923C64.5636 181.257 66.8248 169.479 66.8248 169.479L60.1415 168.73Z" fill="white"/>
<g style="mix-blend-mode:multiply" opacity="0.5">
<path d="M59.0818 173.652L63.5123 175.126C63.655 176.054 63.4598 177.002 62.9623 177.798C62.4648 178.594 61.6978 179.186 60.8006 179.466C58.8399 180.115 55.3188 177.9 52.8074 176.026L52.8908 176.118C55.1853 178.874 59.8828 182.614 62.2441 181.948C64.6054 181.282 66.8665 169.504 66.8665 169.504L60.1415 168.713C60.1415 168.713 59.6575 173.044 59.0818 173.652Z" fill="#EFFF00"/>
</g>
<path d="M60.1415 168.73C60.1415 168.73 59.6575 173.044 59.0818 173.652C58.5061 174.26 43.3205 161.517 42.3944 160.326C41.4682 159.135 42.1107 154.845 42.3944 153.504C42.6781 152.163 42.1941 151.43 40.7256 152.363C39.2572 153.296 39.6493 157.136 39.6493 157.136C39.6493 157.136 35.1687 156.053 34.276 155.928C33.3832 155.803 32.6072 156.919 32.7407 157.802C32.8742 158.685 34.0423 158.752 34.0423 158.752C33.7471 160.033 33.8311 161.373 34.2843 162.608C35.0686 164.215 35.953 165.231 37.6218 165.64C39.3468 165.903 41.0923 166.009 42.8366 165.956C42.8366 165.956 50.5963 173.327 52.8491 176.093C55.1019 178.858 59.8411 182.589 62.2024 181.923C64.5636 181.257 66.8248 169.479 66.8248 169.479L60.1415 168.73Z" stroke="#0A2B14" stroke-width="0.75" stroke-linecap="round" stroke-linejoin="round"/>
<path d="M44.9726 162.658L42.8366 165.981L43.9296 166.722L46.1157 163.599L44.9726 162.658Z" fill="#0A2B14" stroke="#0A2B14" stroke-miterlimit="10"/>
<path d="M44.2384 165.781C44.6992 165.781 45.0727 165.408 45.0727 164.948C45.0727 164.488 44.6992 164.115 44.2384 164.115C43.7775 164.115 43.404 164.488 43.404 164.948C43.404 165.408 43.7775 165.781 44.2384 165.781Z" fill="white" stroke="#0A2B14" stroke-width="0.75" stroke-linecap="round" stroke-linejoin="round"/>
<path d="M42.1858 140.336C42.1858 140.336 42.6948 141.602 43.5458 143.801C44.3969 146 48.9776 150.672 51.2137 150.931C53.4498 151.189 56.1281 143.085 56.5537 141.419C56.6955 140.861 56.8374 139.978 56.8374 139.978C56.8374 139.978 59.6492 138.662 58.9984 137.063C58.3476 135.464 57.0293 134.722 56.4035 135.214C55.7777 135.705 55.6692 137.779 54.7347 137.804C53.8002 137.829 53.2996 137.521 52.4736 136.43C51.6476 135.339 43.0786 137.612 42.1858 140.336Z" fill="white"/>
<path opacity="0.5" d="M52.4486 136.43C51.6142 135.339 43.0786 137.612 42.1858 140.336C42.1858 140.336 42.3694 140.777 42.6781 141.577C45.9373 139.606 49.4842 138.153 53.1912 137.271C52.9164 137.016 52.6677 136.734 52.4486 136.43V136.43Z" fill="#EFFF00"/>
<g style="mix-blend-mode:multiply">
<g style="mix-blend-mode:multiply" opacity="0.5">
<path d="M58.8816 136.838C58.2057 135.405 56.9959 134.747 56.3785 135.214C55.9951 135.71 55.7117 136.276 55.5441 136.879C56.6523 136.753 57.7705 136.74 58.8816 136.838V136.838Z" fill="#EFFF00"/>
</g>
</g>
<path d="M42.1858 140.336C42.1858 140.336 42.6948 141.602 43.5458 143.801C44.3969 146 48.9776 150.672 51.2137 150.931C53.4498 151.189 56.1281 143.085 56.5537 141.419C56.6955 140.861 56.8374 139.978 56.8374 139.978C56.8374 139.978 59.6492 138.662 58.9984 137.063C58.3476 135.464 57.0293 134.722 56.4035 135.214C55.7777 135.705 55.6692 137.779 54.7347 137.804C53.8002 137.829 53.2996 137.521 52.4736 136.43C51.6476 135.339 43.0786 137.612 42.1858 140.336Z" stroke="#0A2B14" stroke-width="0.75" stroke-linecap="round" stroke-linejoin="round"/>
<path d="M45.2229 140.961C45.3731 141.469 45.323 141.927 45.1228 141.993C44.9225 142.06 44.6305 141.685 44.4803 141.161C44.3301 140.636 44.3802 140.186 44.5804 140.128C44.7807 140.069 45.056 140.444 45.2229 140.961Z" fill="#0A2B14" stroke="#0A2B14" stroke-miterlimit="10"/>
<path d="M43.696 139.52C44.8558 139.187 45.3648 140.069 45.5066 140.877L45.7235 141.835L46.4494 145.542L47.5508 145.075" stroke="#0A2B14" stroke-width="0.5" stroke-linecap="round" stroke-linejoin="round"/>
<path d="M48.3935 139.811C48.6473 139.533 48.9629 139.318 49.315 139.183C49.6671 139.049 50.046 138.999 50.421 139.037" stroke="#0A2B14" stroke-width="0.5" stroke-linecap="round" stroke-linejoin="round"/>
<path d="M49.3864 137.496C48.9122 137.597 48.4776 137.833 48.1354 138.176C47.7932 138.519 47.5583 138.954 47.459 139.428" stroke="#0A2B14" stroke-width="0.5" stroke-linecap="round" stroke-linejoin="round"/>
<path d="M48.5187 146.266C48.5187 146.266 50.9384 145.792 51.1303 144.051" stroke="#0A2B14" stroke-width="0.5" stroke-linecap="round" stroke-linejoin="round"/>
<path d="M69.0609 174.976L56.8374 171.578C56.8374 171.578 57.9137 150.756 59.8077 147.241C62.7364 141.76 69.4781 144.234 70.738 151.105C71.9311 157.569 69.0609 174.976 69.0609 174.976Z" fill="#EFFF00" stroke="#0A2B14" stroke-linecap="round" stroke-linejoin="round"/>
<path d="M57.1294 169.229C57.1294 169.229 63.8044 170.762 67.8761 172.103" stroke="#0A2B14" stroke-width="0.5" stroke-linecap="round" stroke-linejoin="round"/>
<path d="M67.7009 143.593C67.7009 143.593 71.6725 143.892 74.2674 146.033" stroke="#EFFF00" stroke-width="0.5" stroke-linecap="round" stroke-linejoin="round"/>
<path d="M137.671 196.849C137.671 196.849 119.882 203.12 118.255 204.828C116.628 206.535 116.795 213.157 120.625 216.43C124.455 219.703 151.822 212.332 171.388 210.183C190.954 208.034 233.874 204.894 251.379 204.061C268.884 203.229 276.878 205.511 278.413 200.064C279.948 194.616 279.798 188.778 276.436 187.612C273.073 186.446 212.314 176.684 137.671 196.849Z" fill="#0A2B14" stroke="#0A2B14" stroke-width="0.75" stroke-linecap="round" stroke-linejoin="round"/>
<path d="M117.012 208.468C117.012 208.468 117.847 215.68 122.294 216.797C126.741 217.913 179.59 207.909 210.737 206.802C241.884 205.694 269.143 204.853 269.143 204.853" stroke="white" stroke-width="0.5" stroke-linecap="round" stroke-linejoin="round"/>
<path d="M142.819 212.132C163.478 207.135 205.981 200.064 277.487 202.079" stroke="white" stroke-width="0.5" stroke-linecap="round" stroke-linejoin="round"/>
<path d="M125.89 216.555C125.89 216.555 130.629 215.406 137.855 213.44" stroke="white" stroke-width="0.5" stroke-linecap="round" stroke-linejoin="round"/>
<path d="M130.245 217.388C130.47 220.481 130.386 223.59 129.995 226.667" stroke="white" stroke-width="0.5" stroke-linecap="round" stroke-linejoin="round"/>
<path d="M129.486 84.1233C129.486 84.1233 125.506 88.7792 125.197 92.9521" stroke="#0A2B14" stroke-width="0.75" stroke-linecap="round" stroke-linejoin="round"/>
<path d="M124.78 96.3587C124.78 96.3587 121.785 143.917 129.711 194.55" stroke="#0A2B14" stroke-width="0.75" stroke-linecap="round" stroke-linejoin="round"/>
<path d="M125.723 151.322C125.723 151.322 119.248 153.571 119.173 156.478C118.956 164.324 119.782 181.048 121.484 182.673C123.187 184.297 128.518 179.999 128.518 179.999C128.518 179.999 136.028 180.64 136.862 178.958C137.696 177.275 134.567 153.604 134.1 151.53C133.633 149.456 125.723 151.322 125.723 151.322Z" fill="#EFFF00" stroke="#0A2B14" stroke-linecap="round" stroke-linejoin="round"/>
<path d="M260.791 162.575C262.469 163.402 264.296 163.886 266.164 163.999C264.095 156.236 261.751 147.591 259.331 138.962C257.145 138.803 254.325 138.803 254.375 139.795C254.425 141.485 258.655 161.375 260.791 162.575Z" fill="#EFFF00" stroke="#0A2B14" stroke-linecap="round" stroke-linejoin="round"/>
<path d="M124.797 153.771C124.797 153.771 125.072 168.763 126.19 174.593" stroke="#0A2B14" stroke-width="0.75" stroke-linecap="round" stroke-linejoin="round"/>
<path d="M202.752 157.236C202.752 157.236 239.99 151.247 283.369 158.901" stroke="#0A2B14" stroke-linecap="round" stroke-linejoin="round"/>
<path d="M316.135 180.74C318.688 181.498 321.208 182.314 323.644 183.172" stroke="#0A2B14" stroke-linecap="round" stroke-linejoin="round"/>
<path d="M249.293 169.404C249.293 169.404 278.813 171.187 307.049 178.241" stroke="#0A2B14" stroke-linecap="round" stroke-linejoin="round"/>
<path d="M159.448 238.027C183.755 234.319 208.45 233.879 232.873 236.72" stroke="#0A2B14" stroke-linecap="round" stroke-linejoin="round"/>
<path d="M156.395 234.104C156.395 234.104 173.866 231.922 179.548 231.481" stroke="#0A2B14" stroke-linecap="round" stroke-linejoin="round"/>
<path d="M273.407 72.3294C275.91 72.6959 278.371 73.1623 280.682 73.712" stroke="#0A2B14" stroke-linecap="round" stroke-linejoin="round"/>
<path d="M237.437 71.5131C247.718 70.7882 258.039 70.8578 268.309 71.7214" stroke="#0A2B14" stroke-linecap="round" stroke-linejoin="round"/>
<path d="M144.805 150.797C144.805 150.797 159.891 146.866 182.852 145.558" stroke="#0A2B14" stroke-linecap="round" stroke-linejoin="round"/>
<path d="M102.411 234.046C105.441 239.463 110.33 243.605 116.178 245.707" stroke="#0A2B14" stroke-linecap="round" stroke-linejoin="round"/>
<path d="M101.576 237.752C101.576 237.752 105.331 243.583 110.337 246.081" stroke="#0A2B14" stroke-linecap="round" stroke-linejoin="round"/>
<path d="M224.646 216.93C224.646 216.93 227.149 228.591 237.162 233.588" stroke="#0A2B14" stroke-linecap="round" stroke-linejoin="round"/>
<path d="M225.898 227.383C227.882 230.284 230.623 232.588 233.824 234.046" stroke="#0A2B14" stroke-linecap="round" stroke-linejoin="round"/>
<path d="M60.8257 249.805C60.8257 249.805 63.3288 253.969 72.0897 253.969" stroke="#0A2B14" stroke-linecap="round" stroke-linejoin="round"/>
<path d="M59.1569 252.303C62.3487 254.953 66.2829 256.553 70.4209 256.884" stroke="#0A2B14" stroke-linecap="round" stroke-linejoin="round"/>
<path d="M171.947 242.017C149.771 243.222 127.758 246.507 106.199 251.828L106.716 252.611C106.716 252.611 125.072 248.722 159.006 257.051C192.94 265.38 195.159 272.043 232.431 272.043C269.702 272.043 305.855 263.156 305.855 263.156L301.333 260.657C267.917 246.54 222.06 239.185 171.947 242.017Z" fill="#EFFF00"/>
<path opacity="0.5" d="M171.947 242.017C149.771 243.222 127.758 246.507 106.199 251.828L106.716 252.611C106.716 252.611 125.072 248.722 159.006 257.051C192.94 265.38 195.159 272.043 232.431 272.043C269.702 272.043 305.855 263.156 305.855 263.156L301.333 260.657C267.917 246.54 222.06 239.185 171.947 242.017Z" fill="white"/>
<path d="M90.3123 261.074C90.3123 261.074 134.117 254.41 172.081 279.814" stroke="#0A2B14" stroke-linecap="round" stroke-linejoin="round"/>
<path d="M136.203 270.694C136.203 270.694 154.142 276.108 164.989 287.768" stroke="#0A2B14" stroke-linecap="round" stroke-linejoin="round"/>
<path d="M242.168 249.413C242.168 249.413 267.616 251.912 290.561 265.655" stroke="#0A2B14" stroke-linecap="round" stroke-linejoin="round"/>
<path d="M321.533 270.944C326.118 273.737 330.48 276.878 334.583 280.339" stroke="#0A2B14" stroke-linecap="round" stroke-linejoin="round"/>
<path d="M22.9869 290.584C53.3998 264.764 108.351 245.607 171.947 242.017C229.994 238.735 282.351 249.105 316.252 267.837" stroke="#0A2B14" stroke-linecap="round" stroke-linejoin="round"/>
<path d="M208.376 249.038C208.376 249.038 234.659 250.288 252.18 256.118" stroke="#0A2B14" stroke-linecap="round" stroke-linejoin="round"/>
<path d="M89.2026 51.2736C89.2026 51.2736 88.3682 39.7462 71.4806 39.338C54.5929 38.9299 59.1068 50.8571 54.5762 53.739C50.0456 56.6208 48.8024 52.0731 44.2634 54.98C39.7244 57.8868 41.7603 63.6172 38.0807 64.4418C34.4011 65.2663 29.4199 60.7354 24.8893 63.6089C20.3587 66.4824 20.3503 68.9644 18.2894 68.9644C16.2285 68.9644 12.1067 67.2986 9.62864 68.9644C7.15056 70.6303 4.27198 72.6625 4.27198 72.6625H108.568C108.568 72.6625 109.803 68.9644 105.273 66.4907C100.742 64.017 98.6727 66.0826 97.0207 63.992C95.3686 61.9014 101.576 56.6375 89.2026 51.2736Z" fill="#EFFF00"/>
<path d="M151.18 7.18796C151.18 7.18796 150.679 0.249874 140.508 2.50168e-06C130.337 -0.249869 133.074 6.92976 130.345 8.6622C127.617 10.3946 126.874 7.67105 124.146 9.40349C121.418 11.1359 122.653 14.6091 120.425 15.1006C118.197 15.592 115.218 12.8684 112.49 14.6091C109.762 16.3499 109.762 17.8241 108.518 17.8241C107.275 17.8241 104.797 16.833 103.312 17.8241C101.827 18.8153 100.125 20.0563 100.125 20.0563H162.878C162.878 20.0563 163.62 17.8325 160.892 16.3499C158.163 14.8673 156.92 16.1 155.927 14.859C154.934 13.618 158.614 10.403 151.18 7.18796Z" fill="#EFFF00"/>
<path opacity="0.7" d="M89.2026 51.2736C89.2026 51.2736 88.3682 39.7462 71.4806 39.338C54.5929 38.9299 59.1068 50.8571 54.5762 53.739C50.0456 56.6208 48.8024 52.0731 44.2634 54.98C39.7244 57.8868 41.7603 63.6172 38.0807 64.4418C34.4011 65.2663 29.4199 60.7354 24.8893 63.6089C20.3587 66.4824 20.3503 68.9644 18.2894 68.9644C16.2285 68.9644 12.1067 67.2986 9.62864 68.9644C7.15056 70.6303 4.27198 72.6625 4.27198 72.6625H108.568C108.568 72.6625 109.803 68.9644 105.273 66.4907C100.742 64.017 98.6727 66.0826 97.0207 63.992C95.3686 61.9014 101.576 56.6375 89.2026 51.2736Z" fill="white"/>
<path opacity="0.8" d="M151.18 7.18796C151.18 7.18796 150.679 0.249874 140.508 2.50168e-06C130.337 -0.249869 133.074 6.92976 130.345 8.6622C127.617 10.3946 126.874 7.67105 124.146 9.40349C121.418 11.1359 122.653 14.6091 120.425 15.1006C118.197 15.592 115.218 12.8684 112.49 14.6091C109.762 16.3499 109.762 17.8241 108.518 17.8241C107.275 17.8241 104.797 16.833 103.312 17.8241C101.827 18.8153 100.125 20.0563 100.125 20.0563H162.878C162.878 20.0563 163.62 17.8325 160.892 16.3499C158.163 14.8673 156.92 16.1 155.927 14.859C154.934 13.618 158.614 10.403 151.18 7.18796Z" fill="white"/>
</g>
<defs>
<clipPath id="clip0_16_33">
<rect width="335" height="291" fill="white"/>
</clipPath>
</defs>
</svg>
