<svg width="265" height="35" viewBox="0 0 265 35" fill="none" xmlns="http://www.w3.org/2000/svg">
<path d="M20.2455 6.9065V33.884H28.1655V6.9065H48.312V0.125H0V6.9065H20.2455Z" fill="#0A2B14"/>
<path d="M72.4351 28.637C63.3271 28.637 59.5156 27.647 58.7236 23.1425H90.4036C90.5026 22.5485 90.6016 20.816 90.6016 19.7765C90.6016 11.2625 82.7311 8.243 71.0986 8.243C58.5751 8.243 51.4471 12.005 51.4471 21.3605C51.4471 30.8645 57.8821 34.5275 71.7916 34.5275C78.2266 34.5275 85.4536 33.686 89.9086 32.597L88.3741 27.2015C85.6516 27.6965 79.8106 28.637 72.4351 28.637ZM70.8511 13.292C80.0581 13.292 82.8301 15.1235 83.3251 19.1825H58.7236C59.4166 14.777 62.8816 13.292 70.8511 13.292Z" fill="#0A2B14"/>
<path d="M138.367 10.0745C132.971 9.233 125.843 8.3915 117.676 8.3915C106.439 8.3915 98.8163 11.5595 98.8163 21.5585C98.8163 30.716 104.459 34.379 113.666 34.379C120.002 34.379 126.14 32.399 131.288 30.122L131.882 33.884H138.367V10.0745ZM106.192 21.311C106.192 16.262 110.053 14.381 116.933 14.381C121.438 14.381 126.685 14.7275 130.942 15.2225V25.172C125.447 27.0035 120.052 28.241 115.052 28.241C108.815 28.241 106.192 26.3105 106.192 21.311Z" fill="#0A2B14"/>
<path d="M148.287 33.884H155.663V17.054C160.563 15.4205 164.622 14.48 168.285 14.48C174.126 14.48 176.75 16.8065 176.75 21.2615V33.884H184.125V20.1725C184.125 18.9845 184.026 17.8955 183.828 16.9055C188.828 15.371 193.035 14.48 196.748 14.48C202.589 14.48 205.212 16.8065 205.212 21.2615V33.884H212.588V20.1725C212.588 11.6585 207.737 8.243 199.124 8.243C193.085 8.243 187.095 10.2725 182.046 12.5C179.819 9.53 175.958 8.243 170.661 8.243C165.216 8.243 159.87 9.9755 155.267 12.005L154.772 8.88651H148.287V33.884Z" fill="#0A2B14"/>
<path d="M221.253 21.3605C221.253 30.419 228.183 34.478 242.835 34.478C257.537 34.478 264.467 30.419 264.467 21.3605C264.467 12.2525 257.537 8.1935 242.835 8.1935C228.183 8.1935 221.253 12.2525 221.253 21.3605ZM228.629 21.3605C228.629 16.46 231.995 14.48 242.835 14.48C253.725 14.48 257.091 16.46 257.091 21.3605C257.091 26.261 253.725 28.241 242.835 28.241C231.995 28.241 228.629 26.261 228.629 21.3605Z" fill="#0A2B14"/>
</svg>
